#!OML:ASF E:\I on waltz\AllaLogoMonkeySwing\Project 1\Capture day 1\Session 1\Subject1.ASF
:FULLY-SPECIFIED
:DEGREES
649
root 1.51462 9.16857 0.525098 6.93859 -1.58208 -4.04322
lowerback 44.9046 1.6842 0.749798
upperback 8.00593 2.53571 1.35851
thorax -11.9615 1.06164 -0.0662006
lowerneck -3.06493 1.37179 -0.81114
upperneck -26.0532 1.79406 -0.78163
head -7.50098 1.03589 -0.219407
rclavicle -3.57812e-015 -5.66536e-015
rhumerus -18.8228 0.154067 -78.3334
rradius 64.841
rwrist -3.94269
rhand -8.69446 -38.0127
rfingers 7.12502
rthumb 17.2405 -67.2679
lclavicle -3.57812e-015 -5.66536e-015
lhumerus -23.6285 7.62535 79.3513
lradius 72.6075
lwrist 5.62058
lhand -15.1124 -30.5276
lfingers 7.12502
lthumb 11.0563 -0.838841
rfemur -99.7356 -8.43848 33.5815
rtibia 127.095
rfoot -32.4977 -7.78054
rtoes 19.0197
lfemur -101.757 20.8678 -25.8649
ltibia 127.421
lfoot -38.0468 -8.90537
ltoes -7.5893
650
root 1.50151 9.46062 0.617947 7.35613 -1.64587 -3.77895
lowerback 45.015 1.8233 0.364165
upperback 7.79644 2.53437 1.35606
thorax -12.2507 1.0676 0.124017
lowerneck -3.25801 1.36823 -0.779329
upperneck -26.3741 1.77413 -0.862212
head -7.57551 1.03084 -0.250969
rclavicle 1.30204e-014 2.48481e-016
rhumerus -18.8374 -0.267788 -78.6325
rradius 63.6202
rwrist -4.51614
rhand -8.67653 -38.3073
rfingers 7.12502
rthumb 17.2578 -67.561
lclavicle 1.30204e-014 2.48481e-016
lhumerus -23.6974 8.04486 79.6267
lradius 71.7951
lwrist 5.35443
lhand -15.0892 -30.6433
lfingers 7.12502
lthumb 11.0787 -0.955703
rfemur -97.5167 -8.41969 32.9359
rtibia 125.198
rfoot -33.1566 -7.65681
rtoes 18.9178
lfemur -99.2558 20.5749 -25.4082
ltibia 125.465
lfoot -38.5055 -8.7601
ltoes -7.83369
651
root 1.49086 9.76007 0.709814 7.85197 -1.71415 -3.7956
lowerback 44.9438 1.92841 0.235968
upperback 7.61175 2.61899 1.43488
thorax -12.4561 1.10569 0.234143
lowerneck -3.58625 1.34735 -0.867439
upperneck -26.5482 1.74563 -0.857073
head -7.5796 1.0256 -0.230975
rclavicle -7.35503e-015 1.05356e-014
rhumerus -18.8941 -0.707092 -78.8701
rradius 62.4504
rwrist -4.97149
rhand -8.54035 -38.4424
rfingers 7.12502
rthumb 17.3889 -67.6846
lclavicle -7.35503e-015 1.05356e-014
lhumerus -23.8518 8.41545 79.9812
lradius 71.0674
lwrist 4.93128
lhand -15.1142 -30.918
lfingers 7.12502
lthumb 11.0546 -1.22913
rfemur -95.2727 -8.18992 32.5445
rtibia 123.132
rfoot -33.6589 -7.88816
rtoes 18.8662
lfemur -96.9454 20.3904 -24.7706
ltibia 123.425
lfoot -38.9289 -8.67228
ltoes -8.16118
652
root 1.47607 10.0867 0.787903 7.77589 -1.70978 -3.82868
lowerback 45.7633 2.05025 0.144314
upperback 7.39225 2.74801 1.55587
thorax -12.9534 1.15525 0.337486
lowerneck -4.00268 1.30139 -1.09115
upperneck -26.6149 1.71297 -0.704014
head -7.53531 1.0192 -0.13708
rclavicle -1.2424e-014 -9.14409e-015
rhumerus -19.0491 -1.22677 -79.0432
rradius 61.4541
rwrist -5.29726
rhand -8.3074 -38.5149
rfingers 7.12502
rthumb 17.613 -67.7371
lclavicle -1.2424e-014 -9.14409e-015
lhumerus -24.0037 8.65582 80.3845
lradius 70.3543
lwrist 4.40592
lhand -15.1288 -31.034
lfingers 7.12502
lthumb 11.0405 -1.34435
rfemur -92.1121 -8.15464 32.1097
rtibia 120.814
rfoot -34.3474 -8.04912
rtoes 18.6161
lfemur -93.7406 20.223 -23.9064
ltibia 121.117
lfoot -39.5113 -8.35873
ltoes -9.10057
653
root 1.48028 10.3722 0.863923 8.5686 -1.41225 -3.76326
lowerback 45.2914 1.85291 0.370152
upperback 7.17523 2.62275 1.54242
thorax -13.0665 1.09787 0.268372
lowerneck -4.34433 1.27347 -1.21953
upperneck -26.6775 1.70557 -0.568192
head -7.50127 1.0174 -0.0672397
rclavicle -5.66536e-015 2.98177e-016
rhumerus -19.2181 -1.6785 -79.2843
rradius 60.4308
rwrist -5.31192
rhand -8.12161 -38.4702
rfingers 7.12502
rthumb 17.7918 -67.6763
lclavicle -5.66536e-015 2.98177e-016
lhumerus -24.2067 8.83576 80.6794
lradius 69.6726
lwrist 3.8092
lhand -15.0739 -30.9412
lfingers 7.12502
lthumb 11.0935 -1.25436
rfemur -90.6167 -8.35696 31.7805
rtibia 118.686
rfoot -34.5117 -7.84442
rtoes 18.2412
lfemur -92.1068 19.2363 -23.5692
ltibia 118.919
lfoot -39.5062 -7.70198
ltoes -10.0757
654
root 1.48131 10.6646 0.941445 9.41457 -1.07992 -3.61301
lowerback 44.4876 1.6598 0.444043
upperback 7.03378 2.43009 1.54406
thorax -12.999 1.01904 0.33005
lowerneck -4.5974 1.28779 -1.147
upperneck -26.7805 1.71198 -0.654291
head -7.49195 1.02067 -0.107013
rclavicle 2.88238e-014 1.0635e-014
rhumerus -19.2591 -1.90669 -79.5556
rradius 59.3473
rwrist -5.23828
rhand -8.102 -38.6273
rfingers 7.12502
rthumb 17.8107 -67.8317
lclavicle 2.88238e-014 1.0635e-014
lhumerus -24.434 9.02154 80.9612
lradius 69.0054
lwrist 3.4791
lhand -15.0088 -30.6713
lfingers 7.12502
lthumb 11.1562 -0.987876
rfemur -89.3186 -8.58703 31.4342
rtibia 116.455
rfoot -34.4533 -7.91167
rtoes 17.0736
lfemur -90.5483 18.2515 -23.3613
ltibia 116.603
lfoot -39.4221 -7.28718
ltoes -10.3394
655
root 1.48094 10.9599 1.02068 10.2538 -0.846578 -3.47916
lowerback 43.5074 1.54748 0.425066
upperback 6.92316 2.29357 1.57831
thorax -12.8411 0.96792 0.450334
lowerneck -4.87326 1.28919 -0.990465
upperneck -26.7934 1.67848 -0.839896
head -7.44627 1.00343 -0.191415
rclavicle -2.40529e-014 -1.8487e-014
rhumerus -19.3479 -2.12772 -79.7946
rradius 58.4909
rwrist -5.3319
rhand -7.70187 -39.3188
rfingers 7.12502
rthumb 18.1957 -68.4878
lclavicle -2.40529e-014 -1.8487e-014
lhumerus -24.6575 9.20637 81.2863
lradius 68.2582
lwrist 3.15368
lhand -14.7429 -30.2695
lfingers 7.12502
lthumb 11.4127 -0.60013
rfemur -87.975 -8.70337 31.1189
rtibia 114.161
rfoot -34.3614 -7.94649
rtoes 16.4125
lfemur -89.0351 17.5315 -23.2121
ltibia 114.243
lfoot -39.2531 -7.20344
ltoes -10.0505
656
root 1.4799 11.2578 1.10126 11.0141 -0.709002 -3.33367
lowerback 42.5729 1.50737 0.391145
upperback 6.76556 2.23485 1.59281
thorax -12.7419 0.949912 0.519203
lowerneck -5.23438 1.25005 -0.98394
upperneck -26.5962 1.62798 -0.835913
head -7.31861 0.976318 -0.184532
rclavicle -5.86415e-015 -5.96354e-015
rhumerus -19.6258 -2.50976 -80.0121
rradius 57.5059
rwrist -5.23582
rhand -7.33757 -39.5178
rfingers 7.12502
rthumb 18.5461 -68.6537
lclavicle -5.86415e-015 -5.96354e-015
lhumerus -24.9703 9.28929 81.5954
lradius 67.4694
lwrist 2.59191
lhand -14.4022 -29.9083
lfingers 7.12502
lthumb 11.7413 -0.257415
rfemur -86.4623 -8.79902 30.8029
rtibia 111.813
rfoot -34.3195 -7.91211
rtoes 15.7701
lfemur -87.4196 16.9691 -23.1083
ltibia 111.817
lfoot -39.0317 -7.0304
ltoes -10.4552
657
root 1.47892 11.5529 1.18184 11.7223 -0.65794 -3.2117
lowerback 41.5908 1.49266 0.350073
upperback 6.58713 2.19854 1.576
thorax -12.6409 0.941625 0.547988
lowerneck -5.48256 1.21707 -1.16949
upperneck -26.439 1.63933 -0.572693
head -7.22832 0.977996 -0.0634643
rclavicle 1.98785e-016 1.88845e-015
rhumerus -19.9499 -2.8567 -80.271
rradius 56.1557
rwrist -4.81518
rhand -7.52635 -38.7614
rfingers 7.12502
rthumb 18.3645 -67.9145
lclavicle 1.98785e-016 1.88845e-015
lhumerus -25.3841 9.25433 81.8321
lradius 66.6688
lwrist 2.19744
lhand -14.2809 -29.7018
lfingers 7.12502
lthumb 11.8582 -0.0575718
rfemur -84.9332 -8.84783 30.5301
rtibia 109.413
rfoot -34.1967 -7.9448
rtoes 14.7722
lfemur -85.7921 16.4892 -22.9984
ltibia 109.36
lfoot -38.7708 -6.833
ltoes -10.9642
658
root 1.48424 11.8412 1.26519 12.347 -0.635763 -3.21371
lowerback 40.5498 1.44848 0.398342
upperback 6.43602 2.1658 1.58454
thorax -12.4765 0.93197 0.557661
lowerneck -5.65901 1.20328 -1.31169
upperneck -26.347 1.66799 -0.35014
head -7.17144 0.987357 0.0348647
rclavicle 5.56597e-015 -2.18663e-015
rhumerus -20.2489 -3.07628 -80.5223
rradius 54.8443
rwrist -4.34143
rhand -7.66378 -38.137
rfingers 7.12502
rthumb 18.2323 -67.3025
lclavicle 5.56597e-015 -2.18663e-015
lhumerus -25.7403 9.19288 82.066
lradius 65.7422
lwrist 2.11193
lhand -14.2746 -29.4322
lfingers 7.12502
lthumb 11.8644 0.211623
rfemur -83.3797 -8.87875 30.3597
rtibia 106.989
rfoot -33.9171 -7.86002
rtoes 13.7312
lfemur -84.1722 16.1433 -22.8086
ltibia 106.92
lfoot -38.4772 -6.73101
ltoes -11.0405
659
root 1.48816 12.1381 1.35789 12.6929 -0.394965 -3.11837
lowerback 39.7111 1.34371 0.477091
upperback 6.30142 2.07645 1.61946
thorax -12.3496 0.896093 0.602095
lowerneck -5.92128 1.18151 -1.27948
upperneck -26.1551 1.63812 -0.361054
head -7.06271 0.969375 0.0300224
rclavicle 1.0138e-014 3.97569e-015
rhumerus -20.6584 -3.40808 -80.7053
rradius 53.6907
rwrist -4.0067
rhand -7.54918 -37.9651
rfingers 7.12502
rthumb 18.3426 -67.1203
lclavicle 1.0138e-014 3.97569e-015
lhumerus -26.0884 8.99845 82.3657
lradius 64.7594
lwrist 2.19302
lhand -14.1637 -28.7876
lfingers 7.12502
lthumb 11.9712 0.850115
rfemur -81.4569 -9.24687 30.0863
rtibia 104.527
rfoot -33.7459 -7.53351
rtoes 13.184
lfemur -82.0973 15.6702 -22.6044
ltibia 104.356
lfoot -38.2598 -6.51384
ltoes -11.8695
660
root 1.50286 12.4203 1.44076 13.0115 -0.710242 -3.09366
lowerback 38.929 1.46243 0.463787
upperback 6.12561 2.20598 1.55917
thorax -12.2836 0.956954 0.49568
lowerneck -6.23507 1.13815 -1.25017
upperneck -25.9162 1.58103 -0.360396
head -6.93022 0.937467 0.0310388
rclavicle 7.55382e-015 2.38542e-015
rhumerus -21.0963 -3.79081 -80.8828
rradius 52.5079
rwrist -3.85193
rhand -7.51118 -37.8414
rfingers 7.12502
rthumb 18.3791 -66.9932
lclavicle 7.55382e-015 2.38542e-015
lhumerus -26.5456 8.70263 82.6385
lradius 63.836
lwrist 2.1139
lhand -13.9828 -27.9666
lfingers 7.12502
lthumb 12.1457 1.6608
rfemur -79.6539 -9.12837 29.7303
rtibia 102.03
rfoot -33.4215 -7.04316
rtoes 13.0923
lfemur -80.1523 15.6702 -22.5199
ltibia 101.823
lfoot -37.9382 -6.26894
ltoes -12.5065
